<svg width="202" height="26" viewBox="0 0 202 26" xmlns="http://www.w3.org/2000/svg"><title>Group 3</title><desc>Created with Sketch.</desc><g fill="none"><path d="M11.407 5.615c-.905-1.571-1.992-2.476-3.923-2.476-2.022 0-3.773 1.448-3.773 3.531 0 1.961 2.022 2.866 3.562 3.562l1.509.664c2.957 1.298 5.461 2.776 5.461 6.398 0 3.985-3.199 7.033-7.151 7.033-3.651 0-6.368-2.356-7.091-5.886l2.475-.693c.331 2.323 2.112 4.223 4.555 4.223 2.444 0 4.678-1.87 4.678-4.435 0-2.657-2.083-3.563-4.195-4.528l-1.388-.604c-2.656-1.207-4.948-2.565-4.948-5.825 0-3.531 2.986-5.795 6.366-5.795 2.534 0 4.677 1.296 5.884 3.531l-2.021 1.299zm13.849 9.115c0 1.69-.061 3.62.995 5.071.997 1.388 2.927 2.171 4.586 2.171 1.63 0 3.411-.753 4.467-2.022 1.206-1.448 1.115-3.44 1.115-5.22v-13.553h2.535v14.246c0 2.477-.181 4.437-1.991 6.31-1.569 1.69-3.832 2.596-6.126 2.596-2.142 0-4.343-.815-5.883-2.324-1.993-1.902-2.234-3.985-2.234-6.581v-14.246h2.536v13.553zm22.57-14.518l17.744 18.592v-17.626h2.534v23.782l-17.742-18.561v17.536h-2.536zm32.378 3.319h.935c2.957 0 5.945.272 5.945 3.985 0 3.26-2.383 4.105-5.19 4.105h-1.69v-8.089zm0 10.443h1.84c1.903 0 3.865-.241 5.402-1.508 1.418-1.178 2.172-3.049 2.172-4.891 0-2.022-.874-4.014-2.564-5.191-1.66-1.147-3.682-1.208-5.643-1.208h-3.743v22.758h2.535v-9.96h.001zm50.303 4.255l7.363-18.229 7.361 18.229 5.977-17.053h2.744l-8.721 23.935-7.361-18.319-7.363 18.319-8.722-23.935h2.748zm29.119-17.052h11.797v2.354h-9.263v6.761h8.994v2.355h-8.994v8.934h9.263v2.355h-11.797zm22.873 2.354h.755c3.047 0 5.794.363 5.794 4.105 0 3.532-2.897 4.075-5.764 4.075h-.785v-8.18zm0 10.414h.633l6.88 9.99h3.107l-7.242-10.202c3.503-.302 5.704-2.777 5.704-6.279 0-5.13-4.013-6.278-8.328-6.278h-3.29v22.758h2.536v-9.99z" id="Shape" fill="#000"/><path d="M118.299 12.591c0 6.637-5.256 11.676-11.935 11.676-6.532 0-11.787-5.281-11.787-11.627 0-6.445 5.206-11.726 11.787-11.726 6.68 0 11.935 5.039 11.935 11.677m-21.051.05c0 4.839 3.877 9.124 8.97 9.124 5.28 0 9.391-3.963 9.391-9.124 0-5.254-4.063-9.218-9.391-9.218-5.14 0-8.97 4.286-8.97 9.218" fill="#F7921E"/><path d="M194.179 4.659c0-.618.154-1.196.463-1.737.31-.539.733-.966 1.275-1.278.538-.312 1.121-.467 1.745-.467.616 0 1.196.155 1.736.463.539.309.967.734 1.278 1.274.312.54.468 1.123.468 1.746 0 .608-.151 1.18-.45 1.714-.299.534-.719.961-1.259 1.283-.539.321-1.131.482-1.772.482-.64 0-1.229-.16-1.768-.48-.54-.32-.961-.746-1.262-1.28-.302-.534-.452-1.107-.452-1.718zm.43 0c0 .549.136 1.058.409 1.526.274.467.645.839 1.113 1.114.469.275.979.412 1.529.412.548 0 1.057-.136 1.526-.409.466-.273.838-.644 1.113-1.114.275-.469.412-.979.412-1.528 0-.537-.132-1.039-.396-1.505-.263-.466-.633-.841-1.106-1.125-.473-.284-.99-.426-1.548-.426-.544 0-1.051.136-1.521.409-.471.273-.844.648-1.118 1.123-.276.475-.414.983-.414 1.523zm4.293-.866c0 .244-.06.459-.178.646-.119.187-.288.333-.511.437l1.097 1.82h-.561l-.972-1.667h-.778v1.667h-.467v-4.075h.977c.441 0 .784.096 1.027.288.244.191.366.486.366.884zm-1.903.866h.519c.279 0 .501-.072.662-.215.16-.143.24-.353.24-.628 0-.531-.304-.797-.911-.797h-.509v1.64h-.001z" fill="#000"/></g></svg>