<svg width="130" height="17" viewBox="0 0 130 17" xmlns="http://www.w3.org/2000/svg"><title>Group 3</title><desc>Created with Sketch.</desc><g fill="none"><path d="M7.341 3.698c-.583-1.035-1.282-1.631-2.525-1.631-1.301 0-2.428.954-2.428 2.326 0 1.292 1.301 1.888 2.292 2.346l.971.437c1.903.855 3.515 1.828 3.515 4.214 0 2.625-2.059 4.632-4.602 4.632-2.35 0-4.098-1.552-4.563-3.877l1.593-.457c.213 1.53 1.359 2.781 2.932 2.781s3.011-1.232 3.011-2.921c0-1.75-1.34-2.346-2.7-2.982l-.894-.398c-1.709-.795-3.184-1.689-3.184-3.836 0-2.326 1.922-3.817 4.097-3.817 1.631 0 3.01.854 3.787 2.326l-1.301.855zm8.913 6.004c0 1.113-.039 2.385.64 3.34.642.914 1.884 1.43 2.952 1.43 1.049 0 2.195-.496 2.875-1.332.776-.954.718-2.265.718-3.438v-8.927h1.631v9.383c0 1.631-.116 2.922-1.281 4.156-1.01 1.113-2.466 1.71-3.943 1.71-1.379 0-2.795-.537-3.786-1.531-1.282-1.253-1.438-2.625-1.438-4.335v-9.383h1.632v8.927zm14.525-9.562l11.419 12.245v-11.609h1.631v15.664l-11.418-12.225v11.55h-1.632zm20.837 2.186h.602c1.903 0 3.826.179 3.826 2.624 0 2.147-1.534 2.703-3.34 2.703h-1.088v-5.328zm0 6.878h1.184c1.225 0 2.487-.159 3.477-.993.912-.776 1.398-2.008 1.398-3.221 0-1.332-.562-2.644-1.65-3.419-1.068-.756-2.37-.796-3.631-.796h-2.409v14.989h1.631v-6.56h.001zm32.373 2.802l4.739-12.006 4.738 12.006 3.847-11.231h1.766l-5.613 15.764-4.738-12.066-4.739 12.066-5.613-15.764h1.768zm18.74-11.231h7.592v1.55h-5.962v4.453h5.788v1.551h-5.788v5.884h5.962v1.551h-7.592zm14.721 1.55h.486c1.961 0 3.729.239 3.729 2.703 0 2.326-1.864 2.684-3.709 2.684h-.505v-5.388zm0 6.859h.407l4.428 6.58h2l-4.661-6.719c2.255-.199 3.671-1.829 3.671-4.135 0-3.379-2.583-4.135-5.36-4.135h-2.117v14.989h1.632v-6.58z" id="Shape" fill="#fff"/><path d="M76.133 8.293c0 4.372-3.382 7.69-7.681 7.69-4.204 0-7.585-3.478-7.585-7.658 0-4.245 3.35-7.723 7.585-7.723 4.299 0 7.681 3.319 7.681 7.691m-13.548.033c0 3.187 2.495 6.01 5.773 6.01 3.398 0 6.044-2.61 6.044-6.01 0-3.46-2.615-6.071-6.044-6.071-3.308 0-5.773 2.823-5.773 6.071" fill="#F7921E"/><path d="M124.966 3.069c0-.407.099-.788.298-1.144.199-.355.472-.636.82-.842.347-.205.722-.308 1.123-.308.396 0 .77.102 1.117.305s.622.483.823.839c.201.356.301.739.301 1.15 0 .4-.097.777-.29 1.129-.192.352-.463.633-.81.845-.347.212-.728.317-1.14.317-.412 0-.791-.106-1.138-.316-.348-.21-.619-.491-.812-.843-.194-.352-.291-.729-.291-1.132zm.277 0c0 .362.088.697.263 1.005.176.308.415.553.717.733.302.181.63.271.984.271.353 0 .68-.09.982-.27.3-.18.539-.424.717-.733.177-.309.265-.645.265-1.007 0-.354-.085-.684-.255-.991-.17-.307-.407-.554-.712-.741-.305-.187-.637-.28-.996-.28-.35 0-.676.09-.979.27-.303.18-.543.427-.719.74-.178.313-.266.647-.266 1.003zm2.763-.57c0 .161-.038.303-.115.426-.077.123-.186.219-.329.288l.706 1.199h-.361l-.625-1.098h-.501v1.098h-.301v-2.684h.629c.284 0 .505.063.661.189.157.126.235.32.235.582zm-1.225.57h.334c.18 0 .322-.047.426-.142.103-.094.155-.232.155-.413 0-.349-.196-.525-.587-.525h-.328v1.08h-.001z" fill="#fff"/></g></svg>