<?xml version="1.0" encoding="UTF-8"?>
<svg width="125px" height="125px" viewBox="0 0 125 125" version="1.1" xmlns="http://www.w3.org/2000/svg" xmlns:xlink="http://www.w3.org/1999/xlink">
    <!-- Generator: Sketch 49.1 (51147) - http://www.bohemiancoding.com/sketch -->
    <title>page_success</title>
    <desc>Created with Sketch.</desc>
    <defs>
        <linearGradient x1="50%" y1="0%" x2="50%" y2="100%" id="linearGradient-1">
            <stop stop-color="#53E3FD" offset="0%"></stop>
            <stop stop-color="#3023AE" offset="100%"></stop>
        </linearGradient>
    </defs>
    <g id="thank-you" stroke="none" stroke-width="1" fill="none" fill-rule="evenodd">
        <g id="sp-sunpowercom-master-dealer-thanks-01" transform="translate(-658.000000, -192.000000)" fill="url(#linearGradient-1)">
            <g id="page_success" transform="translate(658.000000, 192.000000)">
                <path d="M62.5,125 C27.9822031,125 0,97.0177969 0,62.5 C0,27.9822031 27.9822031,0 62.5,0 C97.0177969,0 125,27.9822031 125,62.5 C125,97.0177969 97.0177969,125 62.5,125 Z M62.5,122 C95.3609426,122 122,95.3609426 122,62.5 C122,29.6390574 95.3609426,3 62.5,3 C29.6390574,3 3,29.6390574 3,62.5 C3,95.3609426 29.6390574,122 62.5,122 Z" id="Oval" fill-rule="nonzero"></path>
                <path d="M92.5469472,48.0625108 C92.5469472,49.0390745 92.1563217,50.0156381 91.4531959,50.718764 L57.8594058,84.312554 C57.15628,85.0156799 56.1797163,85.4063053 55.2031527,85.4063053 C54.226589,85.4063053 53.2500253,85.0156799 52.5468995,84.312554 L33.0937513,64.8594058 C32.3906255,64.15628 32,63.1797163 32,62.2031527 C32,61.226589 32.3906255,60.2500253 33.0937513,59.5468995 L38.4062576,54.2343932 C39.1093835,53.5312673 40.0859471,53.1406419 41.0625108,53.1406419 C42.0390745,53.1406419 43.0156381,53.5312673 43.718764,54.2343932 L55.2031527,65.7578444 L80.8281832,40.0937513 C81.531309,39.3906255 82.5078727,39 83.4844364,39 C84.461,39 85.4375637,39.3906255 86.1406895,40.0937513 L91.4531959,45.4062576 C92.1563217,46.1093835 92.5469472,47.0859471 92.5469472,48.0625108 Z" id=""></path>
            </g>
        </g>
    </g>
</svg>