<?xml version="1.0" encoding="UTF-8"?>
<svg width="125px" height="125px" viewBox="0 0 125 125" version="1.1" xmlns="http://www.w3.org/2000/svg" xmlns:xlink="http://www.w3.org/1999/xlink">
    <!-- Generator: Sketch 49.1 (51147) - http://www.bohemiancoding.com/sketch -->
    <title>financial-options</title>
    <desc>Created with Sketch.</desc>
    <defs>
        <linearGradient x1="50%" y1="0%" x2="50%" y2="100%" id="linearGradient-1">
            <stop stop-color="#53E3FD" offset="0%"></stop>
            <stop stop-color="#3023AE" offset="100%"></stop>
        </linearGradient>
        <linearGradient x1="50%" y1="0%" x2="50%" y2="100%" id="linearGradient-2">
            <stop stop-color="#B4EC51" offset="0%"></stop>
            <stop stop-color="#429321" offset="100%"></stop>
        </linearGradient>
    </defs>
    <g id="faq" stroke="none" stroke-width="1" fill="none" fill-rule="evenodd">
        <g id="sp-sunpowercom-master-dealer-faq-01" transform="translate(-658.000000, -942.000000)">
            <g id="financial-options" transform="translate(658.000000, 942.000000)">
                <path d="M62.5,125 C27.9822031,125 0,97.0177969 0,62.5 C0,27.9822031 27.9822031,0 62.5,0 C97.0177969,0 125,27.9822031 125,62.5 C125,97.0177969 97.0177969,125 62.5,125 Z M62.5,122 C95.3609426,122 122,95.3609426 122,62.5 C122,29.6390574 95.3609426,3 62.5,3 C29.6390574,3 3,29.6390574 3,62.5 C3,95.3609426 29.6390574,122 62.5,122 Z" id="Oval" fill="url(#linearGradient-1)" fill-rule="nonzero"></path>
                <path d="M62.5,125 C27.9822031,125 0,97.0177969 0,62.5 C0,27.9822031 27.9822031,0 62.5,0 C97.0177969,0 125,27.9822031 125,62.5 C125,97.0177969 97.0177969,125 62.5,125 Z M62.5,122 C95.3609426,122 122,95.3609426 122,62.5 C122,29.6390574 95.3609426,3 62.5,3 C29.6390574,3 3,29.6390574 3,62.5 C3,95.3609426 29.6390574,122 62.5,122 Z" id="Oval" fill="url(#linearGradient-2)" fill-rule="nonzero"></path>
                <path d="M63,30 L30,43.3333333 L30,47.7777778 L34.4,47.7777778 C34.4,48.9930556 35.465625,50 36.771875,50 L89.228125,50 C90.534375,50 91.6,48.9930556 91.6,47.7777778 L96,47.7777778 L96,43.3333333 L63,30 Z M38.3846154,52 L38.3846154,78.5714286 L36.3635817,78.5714286 C35.061899,78.5714286 34,79.5747768 34,80.7857143 L34,83 L91,83 L91,80.7857143 C91,79.5747768 89.938101,78.5714286 88.6364183,78.5714286 L86.6153846,78.5714286 L86.6153846,52 L77.8461538,52 L77.8461538,78.5714286 L73.4615385,78.5714286 L73.4615385,52 L64.6923077,52 L64.6923077,78.5714286 L60.3076923,78.5714286 L60.3076923,52 L51.5384615,52 L51.5384615,78.5714286 L47.1538462,78.5714286 L47.1538462,52 L38.3846154,52 Z M93.628125,85 L32.371875,85 C31.065625,85 30,86.0572917 30,87.3333333 L30,92 L96,92 L96,87.3333333 C96,86.0572917 94.934375,85 93.628125,85 Z" id="" fill="url(#linearGradient-2)"></path>
            </g>
        </g>
    </g>
</svg>