<?xml version="1.0" encoding="UTF-8"?>
<svg width="125px" height="125px" viewBox="0 0 125 125" version="1.1" xmlns="http://www.w3.org/2000/svg" xmlns:xlink="http://www.w3.org/1999/xlink">
    <!-- Generator: Sketch 49.1 (51147) - http://www.bohemiancoding.com/sketch -->
    <title>how-to-buy</title>
    <desc>Created with Sketch.</desc>
    <defs>
        <linearGradient x1="29.8676487%" y1="100.999999%" x2="29.8676491%" y2="-19.121465%" id="linearGradient-1">
            <stop stop-color="#3023AE" offset="0%"></stop>
            <stop stop-color="#FF5CCE" offset="100%"></stop>
        </linearGradient>
    </defs>
    <g id="faq" stroke="none" stroke-width="1" fill="none" fill-rule="evenodd">
        <g id="sp-sunpowercom-master-dealer-faq-01" transform="translate(-1108.000000, -432.000000)" fill="url(#linearGradient-1)">
            <g id="how-to-buy" transform="translate(1108.000000, 432.000000)">
                <path d="M62.5,125 C27.9822031,125 0,97.0177969 0,62.5 C0,27.9822031 27.9822031,0 62.5,0 C97.0177969,0 125,27.9822031 125,62.5 C125,97.0177969 97.0177969,125 62.5,125 Z M62.5,122 C95.3609426,122 122,95.3609426 122,62.5 C122,29.6390574 95.3609426,3 62.5,3 C29.6390574,3 3,29.6390574 3,62.5 C3,95.3609426 29.6390574,122 62.5,122 Z" id="Oval" fill-rule="nonzero"></path>
                <path d="M52.6063034,86.4872345 C52.6063034,89.3210414 50.3138663,91.6690527 47.5471318,91.6690527 C44.7803974,91.6690527 42.4879602,89.3210414 42.4879602,86.4872345 C42.4879602,83.6534277 44.7803974,81.3054164 47.5471318,81.3054164 C50.3138663,81.3054164 52.6063034,83.6534277 52.6063034,86.4872345 Z M88.0205046,86.4872345 C88.0205046,89.3210414 85.7280675,91.6690527 82.961333,91.6690527 C80.1945986,91.6690527 77.9021614,89.3210414 77.9021614,86.4872345 C77.9021614,83.6534277 80.1945986,81.3054164 82.961333,81.3054164 C85.7280675,81.3054164 88.0205046,83.6534277 88.0205046,86.4872345 Z M93.0796762,42.44178 L93.0796762,63.1690527 C93.0796762,64.4645073 92.0915568,65.59803 90.8267639,65.7599618 L49.5628955,70.6988823 C49.7605194,71.6299902 50.0767176,72.5610982 50.0767176,73.5326891 C50.0767176,74.463797 49.5233708,75.3139391 49.128123,76.1235982 L85.4909188,76.1235982 C86.8742861,76.1235982 88.0205046,77.2976039 88.0205046,78.7145073 C88.0205046,80.1314107 86.8742861,81.3054164 85.4909188,81.3054164 L45.017546,81.3054164 C43.6341788,81.3054164 42.4879602,80.1314107 42.4879602,78.7145073 C42.4879602,77.4595357 44.2665753,74.4233141 44.8989717,73.1683425 L37.903086,39.8508709 L29.8400313,39.8508709 C28.456664,39.8508709 27.3104455,38.6768652 27.3104455,37.2599618 C27.3104455,35.8430584 28.456664,34.6690527 29.8400313,34.6690527 L39.9583744,34.6690527 C42.6065346,34.6690527 42.6855841,37.9076891 43.0808319,39.8508709 L90.5500904,39.8508709 C91.9334577,39.8508709 93.0796762,41.0248766 93.0796762,42.44178 Z" id="ïº-copy"></path>
            </g>
        </g>
    </g>
</svg>