<?xml version="1.0" encoding="UTF-8"?>
<svg width="125px" height="125px" viewBox="0 0 125 125" version="1.1" xmlns="http://www.w3.org/2000/svg" xmlns:xlink="http://www.w3.org/1999/xlink">
    <!-- Generator: Sketch 49.1 (51147) - http://www.bohemiancoding.com/sketch -->
    <title>solar-technology</title>
    <desc>Created with Sketch.</desc>
    <defs>
        <linearGradient x1="50%" y1="0%" x2="50%" y2="100%" id="linearGradient-1">
            <stop stop-color="#53E3FD" offset="0%"></stop>
            <stop stop-color="#3023AE" offset="100%"></stop>
        </linearGradient>
        <linearGradient x1="50%" y1="0%" x2="50%" y2="100%" id="linearGradient-2">
            <stop stop-color="#F3E33F" offset="0%"></stop>
            <stop stop-color="#F76B1C" offset="100%"></stop>
        </linearGradient>
        <linearGradient x1="50%" y1="0%" x2="50%" y2="100%" id="linearGradient-3">
            <stop stop-color="#FAD961" offset="0%"></stop>
            <stop stop-color="#DD590E" offset="100%"></stop>
        </linearGradient>
    </defs>
    <g id="faq" stroke="none" stroke-width="1" fill="none" fill-rule="evenodd">
        <g id="sp-sunpowercom-master-dealer-faq-01" transform="translate(-658.000000, -432.000000)">
            <g id="solar-technology" transform="translate(658.000000, 432.000000)">
                <path d="M62.5,125 C27.9822031,125 0,97.0177969 0,62.5 C0,27.9822031 27.9822031,0 62.5,0 C97.0177969,0 125,27.9822031 125,62.5 C125,97.0177969 97.0177969,125 62.5,125 Z M62.5,122 C95.3609426,122 122,95.3609426 122,62.5 C122,29.6390574 95.3609426,3 62.5,3 C29.6390574,3 3,29.6390574 3,62.5 C3,95.3609426 29.6390574,122 62.5,122 Z" id="Oval" fill="url(#linearGradient-1)" fill-rule="nonzero"></path>
                <path d="M62.5,125 C27.9822031,125 0,97.0177969 0,62.5 C0,27.9822031 27.9822031,0 62.5,0 C97.0177969,0 125,27.9822031 125,62.5 C125,97.0177969 97.0177969,125 62.5,125 Z M62.5,122 C95.3609426,122 122,95.3609426 122,62.5 C122,29.6390574 95.3609426,3 62.5,3 C29.6390574,3 3,29.6390574 3,62.5 C3,95.3609426 29.6390574,122 62.5,122 Z" id="Oval" fill="url(#linearGradient-2)" fill-rule="nonzero"></path>
                <path d="M85.0863526,62.737914 C85.0863526,50.0399736 74.7842501,39.737871 62.0863097,39.737871 C49.3883693,39.737871 39.0862667,50.0399736 39.0862667,62.737914 C39.0862667,75.4358544 49.3883693,85.737957 62.0863097,85.737957 C74.7842501,85.737957 85.0863526,75.4358544 85.0863526,62.737914 Z M96.1072066,73.7986986 C95.9874147,74.1980049 95.6679696,74.4775193 95.308594,74.5973112 L83.64885,78.4306517 L83.64885,90.6494245 C83.64885,91.0487308 83.4491968,91.4480371 83.1297518,91.6876209 C82.7703761,91.9272047 82.3710698,92.0070659 81.9717635,91.8473434 L70.3120195,88.0938642 L63.124506,97.9966604 C62.8849223,98.3161055 62.485616,98.5157586 62.0863097,98.5157586 C61.6870034,98.5157586 61.2876971,98.3161055 61.0481133,97.9966604 L53.8605998,88.0938642 L42.2008558,91.8473434 C41.8015495,92.0070659 41.4022432,91.9272047 41.0428676,91.6876209 C40.7234225,91.4480371 40.5237694,91.0487308 40.5237694,90.6494245 L40.5237694,78.4306517 L28.8640254,74.5973112 C28.5046497,74.4775193 28.1852046,74.1980049 28.0654128,73.7986986 C27.9456209,73.3993923 27.9855515,72.9601553 28.2251353,72.6407103 L35.4126487,62.737914 L28.2251353,52.8351177 C27.9855515,52.475742 27.9456209,52.0764357 28.0654128,51.6771294 C28.1852046,51.2778231 28.5046497,50.9983087 28.8640254,50.8785168 L40.5237694,47.0451763 L40.5237694,34.8264035 C40.5237694,34.4270972 40.7234225,34.0277909 41.0428676,33.7882071 C41.4022432,33.5486233 41.8015495,33.4687621 42.2008558,33.6284846 L53.8605998,37.3819638 L61.0481133,27.4791676 C61.5272808,26.8402775 62.6453385,26.8402775 63.124506,27.4791676 L70.3120195,37.3819638 L81.9717635,33.6284846 C82.3710698,33.4687621 82.7703761,33.5486233 83.1297518,33.7882071 C83.4491968,34.0277909 83.64885,34.4270972 83.64885,34.8264035 L83.64885,47.0451763 L95.308594,50.8785168 C95.6679696,50.9983087 95.9874147,51.2778231 96.1072066,51.6771294 C96.2269985,52.0764357 96.1870678,52.475742 95.947484,52.8351177 L88.7599706,62.737914 L95.947484,72.6407103 C96.1870678,72.9601553 96.2269985,73.3993923 96.1072066,73.7986986 Z" id="" fill="url(#linearGradient-3)"></path>
            </g>
        </g>
    </g>
</svg>