<?xml version="1.0" encoding="UTF-8"?>
<svg width="125px" height="125px" viewBox="0 0 125 125" version="1.1" xmlns="http://www.w3.org/2000/svg" xmlns:xlink="http://www.w3.org/1999/xlink">
    <!-- Generator: Sketch 49.1 (51147) - http://www.bohemiancoding.com/sketch -->
    <title>sunpower-products</title>
    <desc>Created with Sketch.</desc>
    <defs>
        <linearGradient x1="50%" y1="0%" x2="50%" y2="100%" id="linearGradient-1">
            <stop stop-color="#53E3FD" offset="0%"></stop>
            <stop stop-color="#3023AE" offset="100%"></stop>
        </linearGradient>
        <linearGradient x1="50%" y1="0%" x2="50%" y2="100%" id="linearGradient-2">
            <stop stop-color="#53A0FD" offset="0%"></stop>
            <stop stop-color="#3023AE" offset="100%"></stop>
        </linearGradient>
    </defs>
    <g id="faq" stroke="none" stroke-width="1" fill="none" fill-rule="evenodd">
        <g id="sp-sunpowercom-master-dealer-faq-01" transform="translate(-208.000000, -432.000000)" fill-rule="nonzero">
            <g id="sunpower-products" transform="translate(208.000000, 432.000000)">
                <path d="M62.5,125 C27.9822031,125 0,97.0177969 0,62.5 C0,27.9822031 27.9822031,0 62.5,0 C97.0177969,0 125,27.9822031 125,62.5 C125,97.0177969 97.0177969,125 62.5,125 Z M62.5,122 C95.3609426,122 122,95.3609426 122,62.5 C122,29.6390574 95.3609426,3 62.5,3 C29.6390574,3 3,29.6390574 3,62.5 C3,95.3609426 29.6390574,122 62.5,122 Z" id="Oval" fill="url(#linearGradient-1)"></path>
                <g id="Group-3" transform="translate(36.000000, 36.000000)" fill="url(#linearGradient-2)">
                    <g id="Group-18">
                        <path d="M18.1241611,15.6357504 C18.1241611,17.0320405 16.966443,18.1956155 15.5771812,18.1956155 L6.54697987,18.1956155 C5.15771812,18.1956155 4,17.0320405 4,15.6357504 L4,6.55986509 C4,5.16357504 5.15771812,4 6.54697987,4 L15.5771812,4 C16.966443,4 18.1241611,5.16357504 18.1241611,6.55986509 L18.1241611,15.6357504 Z M34.0234899,15.6357504 C34.0234899,17.0320405 32.8657718,18.1956155 31.4765101,18.1956155 L22.4463087,18.1956155 C21.057047,18.1956155 19.8993289,17.0320405 19.8993289,15.6357504 L19.8993289,6.55986509 C19.8993289,5.16357504 21.057047,4 22.4463087,4 L31.4765101,4 C32.8657718,4 34.0234899,5.16357504 34.0234899,6.55986509 L34.0234899,15.6357504 Z M18.1241611,31.5379427 C18.1241611,32.9342327 16.966443,34.0978078 15.5771812,34.0978078 L6.54697987,34.0978078 C5.15771812,34.0978078 4,32.9342327 4,31.5379427 L4,22.4620573 C4,21.0657673 5.15771812,19.9021922 6.54697987,19.9021922 L15.5771812,19.9021922 C16.966443,19.9021922 18.1241611,21.0657673 18.1241611,22.4620573 L18.1241611,31.5379427 Z M34.0234899,31.5379427 C34.0234899,32.9342327 32.8657718,34.0978078 31.4765101,34.0978078 L22.4463087,34.0978078 C21.057047,34.0978078 19.8993289,32.9342327 19.8993289,31.5379427 L19.8993289,22.4620573 C19.8993289,21.0657673 21.057047,19.9021922 22.4463087,19.9021922 L31.4765101,19.9021922 C32.8657718,19.9021922 34.0234899,21.0657673 34.0234899,22.4620573 L34.0234899,31.5379427 Z M50,15.6357504 C50,17.0320405 48.8422819,18.1956155 47.4530201,18.1956155 L38.4228188,18.1956155 C37.033557,18.1956155 35.8758389,17.0320405 35.8758389,15.6357504 L35.8758389,6.55986509 C35.8758389,5.16357504 37.033557,4 38.4228188,4 L47.4530201,4 C48.8422819,4 50,5.16357504 50,6.55986509 L50,15.6357504 Z M50,31.5379427 C50,32.9342327 48.8422819,34.0978078 47.4530201,34.0978078 L38.4228188,34.0978078 C37.033557,34.0978078 35.8758389,32.9342327 35.8758389,31.5379427 L35.8758389,22.4620573 C35.8758389,21.0657673 37.033557,19.9021922 38.4228188,19.9021922 L47.4530201,19.9021922 C48.8422819,19.9021922 50,21.0657673 50,22.4620573 L50,31.5379427 Z M18.1241611,47.4401349 C18.1241611,48.836425 16.966443,50 15.5771812,50 L6.54697987,50 C5.15771812,50 4,48.836425 4,47.4401349 L4,38.2866779 C4,36.8903879 5.15771812,35.7268128 6.54697987,35.7268128 L15.5771812,35.7268128 C16.966443,35.7268128 18.1241611,36.8903879 18.1241611,38.2866779 L18.1241611,47.4401349 Z M34.0234899,47.4401349 C34.0234899,48.836425 32.8657718,50 31.4765101,50 L22.4463087,50 C21.057047,50 19.8993289,48.836425 19.8993289,47.4401349 L19.8993289,38.2866779 C19.8993289,36.8903879 21.057047,35.7268128 22.4463087,35.7268128 L31.4765101,35.7268128 C32.8657718,35.7268128 34.0234899,36.8903879 34.0234899,38.2866779 L34.0234899,47.4401349 Z M50,47.4401349 C50,48.836425 48.8422819,50 47.4530201,50 L38.4228188,50 C37.033557,50 35.8758389,48.836425 35.8758389,47.4401349 L35.8758389,38.2866779 C35.8758389,36.8903879 37.033557,35.7268128 38.4228188,35.7268128 L47.4530201,35.7268128 C48.8422819,35.7268128 50,36.8903879 50,38.2866779 L50,47.4401349 Z" id="Combined-Shape"></path>
                        <path d="M50.6781116,54 L3.39914163,54 C1.54506438,54 0,52.4549356 0,50.6008584 L0,3.39914163 C0.0772532189,1.54506438 1.54506438,0 3.39914163,0 L50.6008584,0 C52.4549356,0 54,1.54506438 54,3.39914163 L54,50.6008584 C54,52.4549356 52.5321888,54 50.6781116,54 Z M3.39914163,1.69957082 C2.472103,1.69957082 1.69957082,2.472103 1.69957082,3.39914163 L1.69957082,50.6008584 C1.69957082,51.527897 2.472103,52.3004292 3.39914163,52.3004292 L50.6008584,52.3004292 C51.527897,52.3004292 52.3004292,51.527897 52.3004292,50.6008584 L52.3004292,3.39914163 C52.3004292,2.472103 51.527897,1.69957082 50.6008584,1.69957082 L3.39914163,1.69957082 Z" id="Shape"></path>
                    </g>
                </g>
            </g>
        </g>
    </g>
</svg>